<svg width="369" height="144" viewBox="0 0 369 144" xmlns="http://www.w3.org/2000/svg" xmlns:xlink="http://www.w3.org/1999/xlink"><title>01_InReach_Logo</title><defs><path id="a" d="M.06.685h368.392V143.94H.06"/></defs><g fill="none" fill-rule="evenodd"><mask id="b" fill="#fff"><use xlink:href="#a"/></mask><path d="M15.746 133.104l1.305 4.738h.226l1.418-4.738 10.97-30.262h4.628l-15.336 40.374h-3.582L0 102.842h4.624l11.122 30.262M53.122 105.898c-3.31 0-6.08 1.262-8.32 3.78-2.24 2.52-3.545 5.676-3.92 9.468l.077.19h23.657v-1.114c0-3.504-1.03-6.428-3.098-8.783-2.066-2.36-4.863-3.542-8.398-3.542m.562 38.1c-5.05 0-9.248-1.863-12.595-5.597-3.345-3.727-5.02-8.454-5.02-14.176v-2.056c0-5.767 1.662-10.56 4.983-14.363 3.32-3.806 7.344-5.708 12.07-5.708 4.95 0 8.845 1.567 11.68 4.7 2.837 3.135 4.254 7.31 4.254 12.538v3.81h-28.51v1.076c0 4.543 1.205 8.342 3.62 11.395 2.414 3.052 5.586 4.58 9.517 4.58 2.786 0 5.162-.386 7.127-1.155 1.966-.774 3.646-1.878 5.04-3.324l1.9 3.062c-1.517 1.596-3.438 2.867-5.764 3.808-2.326.944-5.094 1.412-8.302 1.412M79.854 102.842l.41 7.054c1.293-2.49 3.043-4.41 5.244-5.77 2.202-1.356 4.806-2.033 7.818-2.033 4.378 0 7.713 1.34 10 4.013 2.288 2.673 3.434 6.848 3.434 12.518v24.592h-4.48v-24.604c0-4.636-.864-7.91-2.593-9.833-1.73-1.92-4.183-2.878-7.367-2.878-3.138 0-5.693.828-7.67 2.485-1.978 1.657-3.402 3.858-4.27 6.604v28.226H75.9v-40.374h3.954M122.405 102.842h8.883v3.657h-8.883v26.305c0 2.637.477 4.51 1.436 5.618.96 1.11 2.235 1.66 3.825 1.66.724 0 1.425-.034 2.11-.095.684-.063 1.475-.167 2.37-.317l.673 3.32c-.75.325-1.657.577-2.725.752-1.072.17-2.138.258-3.21.258-2.837 0-5.044-.894-6.622-2.686-1.58-1.79-2.37-4.627-2.37-8.51V106.5h-6.977v-3.658h11.492M164.387 136.616c-1.294 2.357-3.037 4.18-5.224 5.464-2.19 1.28-4.774 1.918-7.764 1.918-4.255 0-7.587-1.44-10-4.327-2.413-2.883-3.618-7.364-3.618-13.43V102.84h4.477v23.52c0 4.936.84 8.476 2.52 10.615 1.675 2.146 4.058 3.217 7.144 3.217 3.384 0 6.08-.76 8.096-2.282 2.014-1.52 3.422-3.612 4.22-6.277v-28.793h4.476v40.374h-3.955l-.373-6.6M196.668 106.684l-3.32-.224c-2.813 0-5.118.793-6.922 2.37-1.805 1.58-3.093 3.75-3.862 6.51v27.876h-4.48v-40.374h3.918l.562 6.716v.446c1.168-2.487 2.734-4.427 4.7-5.82 1.964-1.396 4.304-2.09 7.013-2.09.575 0 1.13.046 1.662.132.535.088.977.182 1.325.28l-.597 4.178M215.643 105.898c-3.31 0-6.08 1.262-8.32 3.78-2.24 2.52-3.546 5.676-3.92 9.468l.075.19h23.658v-1.114c0-3.504-1.03-6.428-3.098-8.783-2.065-2.36-4.86-3.542-8.395-3.542m.56 38.1c-5.05 0-9.247-1.863-12.595-5.597-3.344-3.727-5.02-8.454-5.02-14.176v-2.056c0-5.767 1.664-10.56 4.984-14.363 3.32-3.806 7.346-5.708 12.07-5.708 4.953 0 8.845 1.567 11.682 4.7 2.836 3.135 4.253 7.31 4.253 12.538v3.81h-28.51v1.076c0 4.543 1.206 8.342 3.62 11.395 2.415 3.052 5.586 4.58 9.517 4.58 2.785 0 5.163-.386 7.125-1.155 1.966-.774 3.645-1.878 5.04-3.324l1.9 3.062c-1.518 1.596-3.44 2.867-5.764 3.808-2.326.944-5.094 1.412-8.302 1.412M262.24 132.932c0-1.884-.778-3.535-2.33-4.95-1.556-1.413-4.363-2.566-8.418-3.463-4.827-1.044-8.387-2.427-10.69-4.138-2.302-1.72-3.453-4.144-3.453-7.28 0-3.084 1.302-5.688 3.9-7.818 2.6-2.128 6.04-3.19 10.318-3.19 4.553 0 8.16 1.126 10.82 3.378 2.663 2.25 3.934 5.07 3.808 8.45l-.075.226h-4.14c0-2.213-.938-4.144-2.82-5.783-1.877-1.643-4.41-2.467-7.592-2.467-3.26 0-5.703.706-7.33 2.1-1.636 1.397-2.448 3.04-2.448 4.917 0 1.86.703 3.396 2.11 4.605 1.406 1.214 4.21 2.285 8.415 3.196 4.804 1.074 8.396 2.537 10.786 4.4 2.386 1.856 3.583 4.385 3.583 7.575 0 3.373-1.363 6.1-4.088 8.186-2.723 2.08-6.324 3.124-10.8 3.124-4.903 0-8.755-1.168-11.55-3.507-2.8-2.34-4.124-5.124-3.976-8.36l.073-.22h4.104c.175 2.892 1.362 5 3.565 6.312 2.2 1.315 4.796 1.973 7.782 1.973 3.232 0 5.78-.71 7.647-2.125 1.867-1.413 2.8-3.13 2.8-5.14" fill="#91928E" mask="url(#b)"/><path d="M.367 4.852h13.126v75.855H.367V4.852zM176.098 33.456c-3.474 0-6.277 1.214-8.412 3.646-2.138 2.43-3.5 5.817-4.092 10.16h24.12v-.94c-.278-4.235-1.404-7.438-3.383-9.612-1.98-2.17-4.723-3.254-8.232-3.254m1.51 48.29c-8.023 0-14.527-2.527-19.51-7.58-4.983-5.05-7.474-11.78-7.474-20.188v-1.56c0-5.63 1.084-10.653 3.256-15.083 2.17-4.426 5.216-7.876 9.142-10.342 3.923-2.465 8.3-3.697 13.126-3.697 7.678 0 13.61 2.45 17.793 7.347 4.188 4.896 6.28 11.823 6.28 20.784v5.108h-36.83c.377 4.653 1.932 8.334 4.658 11.044 2.73 2.706 6.16 4.06 10.29 4.06 5.802 0 10.524-2.342 14.172-7.033l6.825 6.512c-2.258 3.37-5.273 5.98-9.04 7.84-3.768 1.858-8 2.787-12.686 2.787M229.276 71.59c2.5 0 4.854-.607 7.06-1.825 2.205-1.214 3.86-2.848 4.973-4.896V54.24h-6.825c-4.688 0-8.215.815-10.575 2.445-2.362 1.637-3.542 3.946-3.542 6.93 0 2.43.808 4.37 2.424 5.81 1.613 1.44 3.773 2.162 6.484 2.162m13.91 9.113c-.556-1.073-1.043-2.828-1.46-5.257-4.028 4.202-8.96 6.3-14.795 6.3-5.66 0-10.28-1.612-13.857-4.84-3.578-3.23-5.365-7.227-5.365-11.984 0-6.012 2.23-10.622 6.692-13.83 4.464-3.216 10.846-4.82 19.147-4.82h7.762v-3.698c0-2.92-.814-5.256-2.447-7.01-1.635-1.754-4.118-2.63-7.452-2.63-2.882 0-5.243.72-7.083 2.162-1.842 1.44-2.76 3.274-2.76 5.496h-12.66c0-3.092 1.023-5.982 3.074-8.675 2.048-2.69 4.836-4.798 8.36-6.327 3.526-1.53 7.46-2.294 11.8-2.294 6.6 0 11.86 1.66 15.786 4.975 3.924 3.318 5.94 7.98 6.042 13.99V67.68c0 5.072.712 9.115 2.135 12.14v.88h-12.917M289.85 71.64c3.16 0 5.784-.917 7.868-2.76 2.083-1.84 3.193-4.115 3.336-6.827h11.926c-.138 3.51-1.232 6.783-3.28 9.822-2.05 3.04-4.83 5.445-8.336 7.216-3.51 1.774-7.292 2.657-11.358 2.657-7.885 0-14.135-2.553-18.755-7.66-4.618-5.102-6.927-12.155-6.927-21.148v-1.306c0-8.573 2.29-15.445 6.878-20.603 4.584-5.153 10.837-7.734 18.754-7.734 6.704 0 12.166 1.95 16.386 5.86 4.22 3.91 6.432 9.042 6.64 15.394h-11.926c-.143-3.227-1.246-5.886-3.31-7.97-2.068-2.084-4.695-3.124-7.894-3.124-4.097 0-7.26 1.484-9.482 4.455-2.224 2.968-3.35 7.475-3.387 13.517v2.03c0 6.116 1.104 10.674 3.312 13.678 2.205 3.005 5.392 4.504 9.558 4.504M334.483 30.486c4.134-4.795 9.362-7.19 15.68-7.19 12.02 0 18.114 6.86 18.29 20.576v36.834H355.79V44.34c0-3.887-.84-6.64-2.526-8.256-1.682-1.613-4.158-2.422-7.423-2.422-5.068 0-8.854 2.26-11.357 6.773v40.27h-12.658V.686h12.658v29.8M126.302 37.545c-2.503 2.24-5.976 3.36-10.42 3.36h-13.546V15.482h13.91c4.583.068 8.03 1.213 10.34 3.438 2.31 2.223 3.467 5.365 3.467 9.43 0 3.89-1.25 6.952-3.75 9.195m3.018 10.895c4.378-1.84 7.792-4.47 10.237-7.895 2.45-3.425 3.674-7.674 3.674-12.748 0-7.44-2.378-13.124-7.134-17.053-4.76-3.926-11.512-5.89-20.265-5.89H89.157V68.36c-.077 4.035-3.156 7.295-7.21 7.295-4.1 0-7.57-3.335-7.57-7.436V43.456c-.202-13.443-6.18-20.163-17.92-20.163-6.77 0-12.238 2.52-16.407 7.554l-.366-6.506h-11.93v56.364h12.66V40.592c2.5-4.62 6.303-6.93 11.41-6.93 3.508 0 6.03.86 7.58 2.578 1.547 1.72 2.316 4.372 2.316 7.947l-.01 21.4c0 11.164 9.073 20.248 20.235 20.248 11.12 0 20.314-9.008 20.39-20.107V51.53h14.694l15.21 29.176h14.117v-.677L129.32 48.44" fill="#55A144"/></g></svg>