<svg width="233" height="233" viewBox="0 0 233 233" xmlns="http://www.w3.org/2000/svg"><title>InReach_Icon</title><g fill="none" fill-rule="evenodd"><path d="M0 .066h232.935V232.94H0V.066z" fill="#55A144"/><path d="M76.988 26.78h30.84V51.29h-30.84V26.78zM232.588 130.187c-7.092 0-12.862-5.77-12.862-12.863v-11.61c0-24.1-19.433-43.703-43.318-43.703-23.885 0-43.316 19.605-43.316 43.703v56.856c0 7.092-5.667 12.863-12.632 12.863s-12.632-5.77-12.632-12.864V63.905h-30.84v98.663c0 24.098 19.502 43.702 43.472 43.702 23.97 0 43.47-19.604 43.47-43.703v-56.857c0-7.092 5.598-12.863 12.478-12.863s12.478 5.77 12.478 12.863v11.61c0 24.1 19.605 43.703 43.702 43.703h.347v-30.84h-.347" fill="#FFF"/></g></svg>